<?xml version="1.0" encoding="utf-8"?>
<!-- Generator: Adobe Illustrator 22.0.1, SVG Export Plug-In . SVG Version: 6.00 Build 0)  -->
<svg version="1.1" id="Capa_1" xmlns="http://www.w3.org/2000/svg" xmlns:xlink="http://www.w3.org/1999/xlink" x="0px" y="0px"
	 viewBox="0 0 810 810" style="enable-background:new 0 0 810 810;" xml:space="preserve">
<style type="text/css">
	.st0{fill:#5E5689;}
	.st1{clip-path:url(#SVGID_2_);}
	.st2{clip-path:url(#SVGID_4_);}
	.st3{clip-path:url(#SVGID_6_);}
</style>
<path class="st0" d="M366.9,128v-23.6C226.1,120.3,114.1,232.3,98.2,373.1h23.6C137.7,245.3,239.1,143.9,366.9,128z"/>
<path class="st0" d="M121.8,443.9H98.2c16.5,140.8,128.5,252.8,268.7,268.7V689C239.1,673.1,137.7,571.7,121.8,443.9z"/>
<path class="st0" d="M402.3,196.4c6.5,0,11.8-5.3,11.8-11.8V43.1c0-6.5-5.3-11.8-11.8-11.8c-6.5,0-11.8,5.3-11.8,11.8v141.4
	C390.5,191.1,395.8,196.4,402.3,196.4z"/>
<g>
	<defs>
		<rect id="SVGID_1_" x="389.7" y="619.7" width="25.2" height="166"/>
	</defs>
	<clipPath id="SVGID_2_">
		<use xlink:href="#SVGID_1_"  style="overflow:visible;"/>
	</clipPath>
	<g class="st1">
		<path class="st0" d="M402.3,620.6c-6.5,0-11.8,5.3-11.8,11.8v141.4c0,6.5,5.3,11.8,11.8,11.8c6.5,0,11.8-5.3,11.8-11.8V632.4
			C414.1,625.9,408.8,620.6,402.3,620.6z"/>
	</g>
</g>
<g>
	<defs>
		<rect id="SVGID_3_" x="613.8" y="395.5" width="165.6" height="25.2"/>
	</defs>
	<clipPath id="SVGID_4_">
		<use xlink:href="#SVGID_3_"  style="overflow:visible;"/>
	</clipPath>
	<g class="st2">
		<path class="st0" d="M767.6,396.7H626.2c-6.5,0-11.8,5.3-11.8,11.8s5.3,11.8,11.8,11.8h141.4c6.5,0,11.8-5.3,11.8-11.8
			S774.1,396.7,767.6,396.7z"/>
	</g>
</g>
<g>
	<defs>
		<rect id="SVGID_5_" x="25.2" y="395.5" width="165.7" height="25.2"/>
	</defs>
	<clipPath id="SVGID_6_">
		<use xlink:href="#SVGID_5_"  style="overflow:visible;"/>
	</clipPath>
	<g class="st3">
		<path class="st0" d="M190.2,408.5c0-6.5-5.3-11.8-11.8-11.8H36.9c-6.5,0-11.8,5.3-11.8,11.8s5.3,11.8,11.8,11.8h141.4
			C184.8,420.3,190.2,415,190.2,408.5z"/>
	</g>
</g>
<path class="st0" d="M500.7,261.8c-28.3-18.9-61.9-30.1-98.4-30.1c-97.2,0-176.8,79.6-176.8,176.8c0,97.2,79.5,176.8,176.8,176.8
	c97.2,0,176.8-79.5,176.8-176.8c0-35.4-10.6-68.4-28.9-96.6l-17.1,17.1c14.1,23.6,22.4,50.7,22.4,79.5
	c0,84.3-68.9,153.2-153.2,153.2s-153.2-68.9-153.2-153.2S318,255.3,402.3,255.3c30,0,57.7,8.8,81.3,23.6L500.7,261.8z"/>
<path class="st0" d="M544.3,137.4c-32.4-17.7-68.4-28.9-106.7-33V128c34.2,4.1,66.6,14.7,95.5,30.1
	C534.3,150.4,538.4,142.7,544.3,137.4z"/>
<path class="st0" d="M651,273.6c16.5,30,27.7,63.6,32.4,99.6H707c-4.7-40.7-17.1-78.4-35.9-112.6l-5.3,4.7
	C661,269.4,656.3,271.8,651,273.6z"/>
<path class="st0" d="M409.4,387.3l1.8-7.1c1.8-6.5-1.8-13-7.7-14.7c-6.5-1.8-13,1.8-15.3,7.7l-15.3,49.5c-1.2,4.1,0,8.3,2.4,11.2
	c2.9,2.9,7.1,4.1,11.2,3.5l50.1-11.8c6.5-1.2,10-7.7,8.8-14.1c-1.2-6.5-7.7-10-14.1-8.8l-6.5,1.8l155.6-156.7l59.5,3.5h0.6
	c2.9,0,5.9-1.2,8.3-2.9l85.4-79.6c2.9-2.9,4.7-7.7,3.5-11.8c-1.2-4.1-4.7-7.7-8.8-8.3l-54.8-11.2l-11.2-54.8
	c-0.6-4.1-4.1-7.7-8.3-8.8c-4.1-1.2-8.8,0-11.8,2.9l-82.5,77.8c-2.4,2.4-4.1,5.9-3.5,9.4l5.3,69.5L409.4,387.3z M636.8,227.6
	l-33.6-1.8l65.4-65.4l33.6,7.1L636.8,227.6z M580.3,167.5l63.6-60.1l7.1,35.9l-67.2,68.4L580.3,167.5z"/>
<path class="st0" d="M437.7,689v23.6c28.3-3.5,56-10.6,81.3-21.2c-4.7-6.5-8.3-13.6-11.8-20.6C485.4,679.6,461.8,686,437.7,689z"/>
<path class="st0" d="M682.8,443.9c-2.9,21.8-7.7,42.4-15.3,62.5c7.7,2.9,14.1,7.1,21.2,11.2c8.8-23.6,15.3-47.7,18.3-73.7H682.8z"/>
<path class="st0" d="M620.3,520.5c-55.4,0-100.2,44.8-100.2,100.2s44.8,100.2,100.2,100.2c55.4,0,100.2-44.8,100.2-100.2
	S675.7,520.5,620.3,520.5z M620.3,697.2c-42.4,0-76.6-34.2-76.6-76.6s34.2-76.6,76.6-76.6c42.4,0,76.6,34.2,76.6,76.6
	S662.8,697.2,620.3,697.2z"/>
<path class="st0" d="M379.3,347.8c8.8-5.9,20-8.3,30.6-4.7c1.8,0.6,2.9,1.2,4.7,1.8c1.2,0,1.8,0.6,2.9,0.6l18.9-18.9
	c-10.6-4.1-22.4-6.5-34.2-6.5c-48.9,0-88.4,39.5-88.4,88.4s39.5,88.4,88.4,88.4s88.4-39.5,88.4-88.4c0-10.6-1.8-21.2-5.3-30.6
	l-18.9,19.4c0,1.2,0.6,1.8,0.6,2.9c1.2,2.4,1.8,4.1,2.4,7.1c2.9,13-1.8,25.3-10.6,34.2c-11.8,18.9-32.4,31.8-56.6,31.8
	c-35.9,0-64.8-28.9-64.8-64.8C337.5,380.8,355.2,357.2,379.3,347.8z"/>
<path class="st0" d="M648,591.2l-42.4,34.8l-13-12.4c-4.7-4.7-12.4-4.1-16.5,0.6c-4.7,4.7-4.1,12.4,0.6,16.5l20.6,18.9
	c2.4,2.4,5.3,2.9,8.3,2.9c2.9,0,5.3-1.2,7.7-2.9l50.1-41.2c5.3-4.1,5.9-11.8,1.8-16.5C661,587,653.3,587,648,591.2z"/>
</svg>
