<?xml version="1.0" encoding="utf-8"?>
<!-- Generator: Adobe Illustrator 22.0.1, SVG Export Plug-In . SVG Version: 6.00 Build 0)  -->
<svg version="1.1" id="Capa_1" xmlns="http://www.w3.org/2000/svg" xmlns:xlink="http://www.w3.org/1999/xlink" x="0px" y="0px"
	 viewBox="0 0 810 810" style="enable-background:new 0 0 810 810;" xml:space="preserve">
<style type="text/css">
	.st0{fill:#5E5689;}
</style>
<path class="st0" d="M619.4,256.1c2,1.3,4.3,1.9,6.6,1.9c2.3,0,4.6-0.6,6.6-1.9c18.8-11.9,80.3-54.2,80.3-100.2
	c0-22.8-13.7-40.2-35.8-45.5c-16.4-3.8-36.8-0.1-51.1,13.1c-14.3-13.2-34.7-16.9-51.1-13.1c-22.1,5.2-35.8,22.7-35.8,45.5
	C539.1,201.9,600.6,244.2,619.4,256.1z M580.7,134.6c2.2-0.5,4.6-0.8,7-0.8c10.3,0,21.8,4.9,27.2,15.6c4.2,8.4,18,8.4,22.2,0
	c6.7-13.3,22.6-17.6,34.3-14.8c6.2,1.5,16.7,6.2,16.7,21.3c0,24.6-32.1,54.7-62.1,74.8c-30-20.1-62.1-50.2-62.1-74.8
	C563.9,140.9,574.4,136.1,580.7,134.6z"/>
<path class="st0" d="M613.6,22.1h24.8v37.3h-24.8V22.1z"/>
<path class="st0" d="M737.8,146.2H775v24.8h-37.3V146.2z"/>
<path class="st0" d="M477,146.2h37.3v24.8H477V146.2z"/>
<path class="st0" d="M516.4,68.1L534,50.6l26.3,26.3l-17.6,17.6L516.4,68.1z"/>
<path class="st0" d="M691.7,76.9l26.3-26.3l17.6,17.6l-26.3,26.3L691.7,76.9z"/>
<path class="st0" d="M36.4,492.2l300.8-180.5l30.5,40.7c3.9,5.2,11.1,6.5,16.5,3.1l89.1-55.7l18.2,27.2c2.3,3.5,6.2,5.5,10.3,5.5
	c0.5,0,1.1,0,1.7-0.1c4.7-0.6,8.6-3.9,10.1-8.4l24.8-74.5c1.3-3.8,0.6-8-1.7-11.2c-2.3-3.2-6.1-5.2-10.1-5.2h-74.5
	c-4.6,0-8.8,2.5-11,6.6c-2.2,4-1.9,8.9,0.6,12.7l17.7,26.6l-78.8,49.3l-30.4-40.5c-3.8-5.1-10.9-6.5-16.3-3.2L23.6,470.9L36.4,492.2
	z M509.5,258l-11.4,34.1L475.4,258H509.5z"/>
<path class="st0" d="M303.2,779.5V667.8c0-34.2-27.9-62.1-62.1-62.1H222c11.8-13.2,19.1-30.6,19.1-49.7c0-41.1-33.4-74.5-74.5-74.5
	S92.1,514.9,92.1,556c0,19.1,7.3,36.5,19.1,49.7H92.1c-34.2,0-62.1,27.9-62.1,62.1v111.8h24.8V667.8c0-20.5,16.7-37.2,37.2-37.2h149
	c20.5,0,37.2,16.7,37.2,37.2v111.8H303.2z M116.9,556c0-27.4,22.3-49.7,49.7-49.7c27.4,0,49.7,22.3,49.7,49.7
	c0,27.4-22.3,49.7-49.7,49.7C139.2,605.7,116.9,583.4,116.9,556z"/>
<path class="st0" d="M228.7,680.2h24.8v99.3h-24.8V680.2z"/>
<path class="st0" d="M79.7,680.2h24.8v99.3H79.7V680.2z"/>
<path class="st0" d="M688.1,680.2h24.8v99.3h-24.8V680.2z"/>
<path class="st0" d="M762.6,779.5V667.8c0-34.2-27.9-62.1-62.1-62.1h-19.1c11.8-13.2,19.1-30.6,19.1-49.7
	c0-41.1-33.4-74.5-74.5-74.5c-41.1,0-74.5,33.4-74.5,74.5c0,19.1,7.3,36.5,19.1,49.7h-1.5c-13.4,0-26.9,3.2-38.9,9.2l-53.6,26.8
	l-81.6-35c-3.8-1.6-8.2-1.3-11.7,1c-3.5,2.3-5.6,6.2-5.6,10.4v62.1c0,5,3,9.5,7.5,11.4l86.9,37.3c2.8,1.2,5.9,1.3,8.8,0.4l58.2-19.4
	v69.7h24.8v-86.9c0-4-1.9-7.7-5.2-10.1c-3.3-2.3-7.4-3-11.2-1.7l-70,23.3L402.5,672V637l69.6,29.8c3.4,1.4,7.2,1.3,10.4-0.3
	l58.8-29.4c8.6-4.3,18.2-6.6,27.8-6.6h131.4c20.5,0,37.2,16.7,37.2,37.2v111.8H762.6z M576.3,556c0-27.4,22.3-49.7,49.7-49.7
	c27.4,0,49.7,22.3,49.7,49.7c0,27.4-22.3,49.7-49.7,49.7C598.6,605.7,576.3,583.4,576.3,556z"/>
</svg>
