<?xml version="1.0" encoding="utf-8"?>
<!-- Generator: Adobe Illustrator 22.0.1, SVG Export Plug-In . SVG Version: 6.00 Build 0)  -->
<svg version="1.1" id="Capa_1" xmlns="http://www.w3.org/2000/svg" xmlns:xlink="http://www.w3.org/1999/xlink" x="0px" y="0px"
	 viewBox="0 0 810 810" style="enable-background:new 0 0 810 810;" xml:space="preserve">
<style type="text/css">
	.st0{fill:#5E5689;}
	.st1{clip-path:url(#SVGID_2_);}
</style>
<path class="st0" d="M286.3,426.5c-3.8-16.9-1.3-32.6,1.9-52.6c9.4-57.6-38.8-110.8-88.9-125.2c-15-3.8-33.8-6.9-53.2-6.9
	c-57.6,0-121.5,26.3-139.6,108.9c-4.4,20-1.9,43.2,6.3,60.7c9.4,19.4,22.5,33.8,31.3,53.2c8.8,18.2,14.4,41.9,12.5,62
	c-1.3,10.6-16.3,41.9-10.6,51.3c1.9,3.1,28.8,4.4,53.9,11.3c25.7,6.9,50.1,20,56.4,25.7c15.7-25,15.7-42,50.1-51.3
	c0,0,3.1-0.6,8.1-0.6s12.5,0.6,21.3,3.8c1.9,0.6,3.8,0.6,5.6,0.6c7.5,0,17.5-3.8,21.9-7.5c11.9-10.6-3.8-34.4,13.8-40.1
	c-1.3-5.6-4.4-18.8,3.1-18.8c0.6,0,1.9,0,2.5,0.6c-3.8-11.3-3.8-20,0-27.6c3.1,0.6,6.3,1.3,9.4,1.3c5,0,8.8-1.3,10-7.5
	c1.3-8.1-6.9-18.8-10-25.7C289.5,437.1,287.6,431.5,286.3,426.5z M261.3,464c-4.4,8.8-6.9,18.2-6.3,28.2c-3.8,6.3-5,13.2-4.4,19.4
	c-8.1,11.3-7.5,25.7-6.9,31.3c0,0.6,0,0.6,0,1.3c-0.6,0-0.6,0-1.3,0c-9.4-3.1-18.8-4.4-27.6-4.4c-7.5,0-12.5,1.3-14.4,1.9
	c-31.9,8.8-44.5,25-53.2,40.7c-12.5-6.3-26.9-11.3-40.1-15c-11.9-3.1-23.2-5-33.2-6.9c0.6-2.5,1.3-4.4,1.9-6.3
	c3.1-8.8,5.6-16.3,6.3-23.2c1.9-23.8-3.1-50.7-15-75.1c-5-11.3-11.3-20.7-17.5-29.4c-5-8.1-10-15.7-14.4-23.8
	c-6.3-12.5-8.1-30.1-4.4-45.1c16.9-78.9,79.5-90.8,115.2-90.8c15.7,0,31.9,2.5,47,6.9c40.1,11.9,78.3,53.8,71.4,97.7l-0.6,4.4
	c-3.1,19.4-6.3,37.6-1.3,58.2c1.9,6.9,4.4,13.8,7.5,20.7C266.3,457.2,263.8,460.3,261.3,464z"/>
<g>
	<g>
		<defs>
			<rect id="SVGID_1_" x="507" y="241" width="299" height="374.6"/>
		</defs>
		<clipPath id="SVGID_2_">
			<use xlink:href="#SVGID_1_"  style="overflow:visible;"/>
		</clipPath>
		<g class="st1">
			<path class="st0" d="M803.6,351.3c-17.5-83.3-81.4-109.6-139-109.6c-19.4,0-38.2,3.1-53.9,7.5c-50.1,14.4-98.3,67.6-88.9,125.2
				c3.1,19.4,6.3,35.7,1.9,52.6c-1.3,5-3.1,10-5.6,15.7c-3.1,6.9-10.6,17.5-10,25.7c0.6,5.6,5,7.5,10,7.5c3.1,0,6.3-0.6,9.4-1.3
				c4.4,7.5,4.4,16.3,0,27.6c1.3,0,1.9-0.6,2.5-0.6c7.5,0,4.4,13.1,3.1,18.8c17.5,5,1.9,28.8,13.8,40.1c4.4,4.4,14.4,7.5,21.9,7.5
				c1.9,0,3.8,0,5.6-0.6c8.8-3.1,16.3-3.8,21.3-3.8s8.1,0.6,8.1,0.6c33.8,8.8,34.4,26.3,50.1,51.3c6.3-5.6,30.7-18.8,56.4-25.7
				c25-6.9,52-8.1,53.9-11.3c5.6-9.4-10-40.1-10.6-51.3c-1.9-20.7,3.8-43.8,12.5-62c8.8-19.4,21.9-33.8,31.3-53.2
				C806.1,393.9,807.9,370.8,803.6,351.3z M775.4,400.8c-3.8,8.1-8.8,15.7-14.4,23.8c-5.6,8.8-11.9,18.2-17.5,29.4
				c-11.3,24.4-16.9,52-15,75.1c0.6,6.9,3.1,14.4,6.3,23.2c0.6,1.9,1.3,3.8,1.9,6.3c-9.4,1.3-21.3,3.8-33.2,6.9
				c-13.1,3.8-27.6,9.4-40.1,15c-8.8-15.7-20.7-31.9-53.2-40.7c-1.9-0.6-6.9-1.9-14.4-1.9c-8.8,0-18.2,1.3-27.6,4.4
				c-0.6,0-0.6,0-1.3,0c0-0.6,0-1.3,0-1.3c0-6.3,0.6-20-6.9-31.3c0-6.3-1.3-13.2-4.4-19.4c0.6-10-1.3-19.4-6.3-28.2
				c-1.9-3.8-5-6.9-8.8-9.4c3.1-6.9,5.6-13.1,7.5-20.7c5-20.7,1.9-38.8-1.3-58.2l-0.6-2.5c-6.9-43.8,31.3-85.8,71.4-97.7
				c14.4-4.4,30.7-6.9,47-6.9c35.7,0,98.3,11.3,115.2,88.9C782.9,370.1,781,388.3,775.4,400.8z"/>
		</g>
	</g>
</g>
<path class="st0" d="M394,226.7c-13.1,3.8-20.7,16.9-16.9,30.1c3.1,13.1,16.9,20.7,29.4,16.9c13.1-3.8,20.7-17.5,16.9-30.1
	C420.3,231.1,406.6,223.6,394,226.7z"/>
<path class="st0" d="M468.6,243l-5.6-1.3c-0.6-2.5-1.3-5.6-1.9-8.8c-1.3-4.4-3.1-8.1-5-11.9l3.8-3.8c6.3-6.3,6.3-15.7,0.6-21.3
	l-8.1-8.1c-6.3-5.6-16.9-6.3-22.5,0l-5,5c-6.9-3.1-13.8-4.4-20.7-5l-1.9-6.3c-2.5-8.8-10-13.8-18.2-11.3l-11.3,3.1
	c-8.1,2.5-13.8,11.3-11.3,19.4l2.5,8.1c-5.6,3.8-10.6,8.8-14.4,15l-6.3-1.9c-8.8-2.5-16.9,1.9-18.8,10l-3.1,11.3
	c-1.9,8.1,3.1,17.5,11.3,19.4l6.3,1.3c0,3.8,0.6,7.5,1.9,11.3c0.6,3.1,1.9,6.9,3.8,10l-3.8,3.8c-6.3,6.3-6.3,15.7-0.6,21.3l7.5,8.1
	c6.3,5.6,16.9,5.6,22.5,0l3.8-3.8c7.5,3.1,15,5,22.5,5.6l1.3,4.4c1.9,7.5,7.5,11.9,14.4,11.9c1.3,0,3.1,0,4.4-0.6l11.3-3.1
	c8.1-2.5,13.8-11.3,11.3-19.4l-1.3-5c6.3-4.4,11.3-10,15.7-16.9h4.4c1.3,0.6,3.1,0.6,4.4,0.6c6.9,0,12.5-3.8,14.4-10.6l3.1-11.3
	C481.7,254.3,476.7,244.9,468.6,243z M466.7,260.6l-3.1,11.3c0,0.6,0,1.3-1.9,1.3c-0.6,0-0.6,0-1.3,0l-13.8-3.8l-2.5,4.4
	c-3.8,8.1-10,15-17.5,19.4l-3.8,2.5l3.8,13.8c0.6,1.3-0.6,3.1-2.5,3.8l-11.3,3.1c-1.3,0.6-1.9-1.3-2.5-2.5l-3.8-13.8l-6.3,0.6
	c-8.8,0-16.9-1.9-24.4-6.3l-4.4-2.5l-10,10.6c-0.6,0.6-1.3,0.6-1.9,0.6s-1.9-0.6-2.5-1.3l-8.1-8.1c-1.3-1.3,0-3.1,0.6-3.8l10-10
	l-2.5-4.4c-2.5-3.1-3.8-7.5-5-11.3c-1.3-4.4-1.9-8.8-1.9-13.1v-5l-15-3.8c-1.3-0.6-2.5-2.5-1.9-4.4l3.1-11.3c0-0.6,0-1.3,1.9-1.3
	c0.6,0,0.6,0,1.3,0l15.7,3.8l1.9-3.8c4.4-7.5,10-13.1,16.9-17.5l4.4-3.8l-4.4-15.7c-0.6-1.3,0.6-3.1,2.5-3.8l11.3-3.1
	c1.9-0.6,2.5,1.3,3.1,2.5l4.4,15.7h5.6c8.1,0,15.7,1.9,22.5,5.6l4.4,1.9l11.3-11.9c0.6-0.6,1.3-0.6,1.9-0.6s1.9,0.6,2.5,1.3l8.1,8.1
	c1.3,1.3,0,3.1-0.6,3.8l-10.6,11.3l2.5,4.4c2.5,3.8,4.4,8.1,5.6,13.1c1.3,3.8,1.9,7.5,1.9,11.3v4.4l14.4,3.8
	C466.1,256.8,467.3,258.7,466.7,260.6z"/>
<path class="st0" d="M534.5,188.9c0.2,0.8,0.4,1.6,0.4,2.4c0.1,0.8,0.1,1.6,0,2.5c-0.1,0.8-0.3,1.6-0.5,2.4c-0.3,0.8-0.6,1.5-1,2.3
	c-0.4,0.7-0.9,1.4-1.4,2s-1.1,1.2-1.8,1.7s-1.3,1-2.1,1.3c-0.7,0.4-1.5,0.7-2.3,0.9s-1.6,0.4-2.4,0.4s-1.6,0.1-2.5,0
	c-0.8-0.1-1.6-0.3-2.4-0.5c-0.8-0.3-1.5-0.6-2.3-1c-0.7-0.4-1.4-0.9-2-1.4s-1.2-1.1-1.7-1.8c-0.5-0.6-1-1.3-1.3-2.1
	c-0.4-0.7-0.7-1.5-0.9-2.3c-0.2-0.8-0.4-1.6-0.4-2.4s-0.1-1.6,0-2.5c0.1-0.8,0.3-1.6,0.5-2.4c0.3-0.8,0.6-1.5,1-2.3
	c0.4-0.7,0.9-1.4,1.4-2s1.1-1.2,1.8-1.7c0.6-0.5,1.3-1,2.1-1.3c0.7-0.4,1.5-0.7,2.3-0.9s1.6-0.4,2.4-0.4s1.6-0.1,2.5,0
	c0.8,0.1,1.6,0.3,2.4,0.5c0.8,0.3,1.5,0.6,2.3,1c0.7,0.4,1.4,0.9,2,1.4s1.2,1.1,1.7,1.8c0.5,0.6,0.9,1.3,1.3,2.1
	C533.9,187.3,534.2,188.1,534.5,188.9z"/>
<path class="st0" d="M524.3,235.5l1.9,6.9c1.3,3.8,4.4,6.3,8.1,5l8.1-2.5c3.8-1.3,6.3-5,5-8.8l-1.9-6.9c6.3-3.8,11.3-9.4,15-16.3
	l6.9,1.9c3.8,1.3,7.5-0.6,8.1-4.4l1.9-8.8c0.6-4.4-1.9-8.8-5.6-9.4l-7.5-1.9c0-3.1-0.6-6.3-1.3-9.4c-1.3-4.4-2.5-7.5-5-11.3l5.6-5.6
	c2.5-2.5,3.1-6.9,0.6-9.4l-6.3-6.3c-2.5-2.5-7.5-3.1-10,0l-6.3,6.3c-6.3-3.1-13.1-5-20-4.4l-2.5-8.1c-1.3-3.8-4.4-6.3-8.1-5
	l-8.1,2.5c-3.8,1.3-6.3,5-5,8.8l2.5,8.8c-6.3,3.8-10.6,8.8-14.4,15l-8.1-1.9c-3.8-1.3-7.5,0.6-8.1,4.4l-1.9,8.8
	c-1.3,3.8,1.3,8.1,5,8.8l8.1,1.9c0,3.8,0.6,7.5,1.9,10.6c1.3,3.8,2.5,6.9,4.4,10l-5,5.6c-2.5,2.5-3.1,6.9-0.6,9.4l6.3,6.3
	c2.5,2.5,7.5,3.1,10,0l5-5.6C509.3,234.3,516.8,236.1,524.3,235.5z M494.9,201.7c-5.6-15,2.5-31.9,18.2-37.6
	c15-5.6,31.9,2.5,37.6,18.2c5.6,15.7-3.1,32.6-18.2,37.6C517.4,225.5,500.5,217.4,494.9,201.7z"/>
<path class="st0" d="M294.5,182.3c0,0.8-0.1,1.6-0.2,2.4c-0.2,0.8-0.4,1.6-0.7,2.3c-0.3,0.8-0.7,1.5-1.2,2.2s-1,1.3-1.6,1.9
	s-1.2,1.1-1.9,1.6c-0.7,0.5-1.4,0.8-2.2,1.2c-0.8,0.3-1.5,0.6-2.3,0.7c-0.8,0.2-1.6,0.2-2.4,0.2s-1.6-0.1-2.4-0.2
	c-0.8-0.2-1.6-0.4-2.4-0.7s-1.5-0.7-2.2-1.2s-1.3-1-1.9-1.6s-1.1-1.2-1.6-1.9s-0.8-1.4-1.2-2.2c-0.3-0.8-0.6-1.5-0.7-2.3
	c-0.2-0.8-0.2-1.6-0.2-2.4c0-0.8,0.1-1.6,0.2-2.4c0.2-0.8,0.4-1.6,0.7-2.3c0.3-0.8,0.7-1.5,1.2-2.2s1-1.3,1.6-1.9
	c0.6-0.6,1.2-1.1,1.9-1.6s1.4-0.8,2.2-1.2c0.8-0.3,1.5-0.6,2.4-0.7c0.8-0.2,1.6-0.2,2.4-0.2s1.6,0.1,2.4,0.2
	c0.8,0.2,1.6,0.4,2.3,0.7c0.8,0.3,1.5,0.7,2.2,1.2s1.3,1,1.9,1.6s1.1,1.2,1.6,1.9s0.8,1.4,1.2,2.2c0.3,0.8,0.6,1.5,0.7,2.3
	C294.4,180.7,294.5,181.5,294.5,182.3z"/>
<path class="st0" d="M335.2,194.8l1.9-8.8c0.6-2.5-1.9-6.9-5.6-7.5l-7.5-1.3c-0.6-3.1-1.3-6.3-1.9-9.4c-1.3-3.8-3.1-7.5-5.6-10.6
	l5-6.3c2.5-3.1,2.5-6.9,0-9.4l-6.9-5.6c-3.1-2.5-7.5-2.5-10,0.6l-5.6,6.9c-6.3-2.5-13.1-3.8-20-3.1l-3.1-8.1
	c-1.3-3.8-4.4-5.6-8.1-4.4l-8.1,3.1c-3.8,1.3-5.6,5.6-4.4,9.4l3.1,8.1c-5.6,4.4-10,9.4-13.1,15.7l-8.8-1.9c-3.8-0.6-7.5,1.3-8.1,5
	l-1.9,8.8c-0.6,3.8,1.9,8.1,5.6,8.8l8.1,1.3c0,3.8,1.3,6.9,2.5,10.6c1.3,3.1,2.5,6.3,5,9.4l-5,5.6c-2.5,3.1-2.5,6.9,0,9.4l6.9,5.6
	c3.1,2.5,7.5,2.5,10-0.6l5-5.6c6.9,3.1,13.8,4.4,21.3,3.8l2.5,6.3c1.3,3.8,4.4,5.6,8.1,4.4l8.1-3.1c3.8-1.3,5.6-5.6,4.4-9.4
	l-2.5-6.9c6.3-4.4,10.6-10.6,13.8-16.9l6.9,1.3C330.8,200.4,334.6,198.6,335.2,194.8z M292,209.8c-15,5.6-31.9-2.5-37.6-18.2
	c-5.6-15,2.5-31.9,18.2-37.6c15-5.6,31.9,2.5,37.6,18.2C315.8,187.9,307.6,204.2,292,209.8z"/>
</svg>
